<svg id="Layer_1" data-name="Layer 1" xmlns="http://www.w3.org/2000/svg" xmlns:xlink="http://www.w3.org/1999/xlink" viewBox="0 0 189.6 190.42"><defs><style>.cls-1{fill:#753c7a;stroke:url(#linear-gradient);}.cls-1,.cls-4,.cls-5{stroke-miterlimit:10;}.cls-1,.cls-4{stroke-width:6px;}.cls-2{opacity:0.23;}.cls-3{fill:#7ac943;}.cls-4{fill:#955299;stroke:url(#linear-gradient-2);}.cls-5{fill:#d17dd8;stroke-width:6.29px;stroke:url(#linear-gradient-3);}.cls-6{fill:#e8b4ef;}</style><linearGradient id="linear-gradient" x1="2.36" y1="95.99" x2="189.66" y2="95.99" gradientUnits="userSpaceOnUse"><stop offset="0" stop-color="#70007f"/><stop offset="1" stop-color="#2a001e"/></linearGradient><linearGradient id="linear-gradient-2" x1="0.05" y1="101.77" x2="186.97" y2="101.77" xlink:href="#linear-gradient"/><linearGradient id="linear-gradient-3" x1="33.51" y1="101.77" x2="153.52" y2="101.77" xlink:href="#linear-gradient"/></defs><title>portal</title><path class="cls-1" d="M111.62,14.84l9.5,12.26a19.74,19.74,0,0,0,16,7.68l15.48-.26a19.74,19.74,0,0,1,20.06,19.41,20.22,20.22,0,0,1-.57,5L168.36,74a19.7,19.7,0,0,0,3.94,17.23l9.85,11.94A19.75,19.75,0,0,1,179.47,131a19.36,19.36,0,0,1-4.28,2.68l-14.06,6.46a19.77,19.77,0,0,0-11,13.85l-3.23,15.15A19.72,19.72,0,0,1,123.5,184.4a19.49,19.49,0,0,1-4.81-1.68l-13.84-6.95a19.76,19.76,0,0,0-17.7,0l-13.84,6.95a19.74,19.74,0,0,1-28.15-13.57L41.93,154a19.73,19.73,0,0,0-11-13.84L16.83,133.7a19.75,19.75,0,0,1-9.65-26.2,20.27,20.27,0,0,1,2.69-4.28l9.86-11.94a19.75,19.75,0,0,0,3.94-17.22L20,59A19.74,19.74,0,0,1,34.43,35.11a19.42,19.42,0,0,1,5-.57l15.48.26a19.74,19.74,0,0,0,16-7.68l9.46-12.26A19.72,19.72,0,0,1,108,11.25,19.37,19.37,0,0,1,111.62,14.84Z" transform="translate(-0.05 -4.16)"/><g class="cls-2"><path class="cls-3" d="M106.05,65h0a12,12,0,0,0,9.69,4.67h0a12,12,0,0,1,12.19,11.84,12.39,12.39,0,0,1-.35,3h0A12,12,0,0,0,130,95.06h0A12,12,0,0,1,128.35,112a12.53,12.53,0,0,1-2.6,1.64h0a12,12,0,0,0-6.72,8.43h0a12,12,0,0,1-14.24,9.27,11.5,11.5,0,0,1-2.9-1h0a12.07,12.07,0,0,0-10.77,0h0A12,12,0,0,1,75,125a11.64,11.64,0,0,1-1-2.9h0a12,12,0,0,0-6.72-8.43h0a12,12,0,0,1-5.87-16A12.6,12.6,0,0,1,63,95.06h0a12,12,0,0,0,2.4-10.51h0A12,12,0,0,1,74.24,70a12.39,12.39,0,0,1,3-.35h0A12,12,0,0,0,87,65h0a12,12,0,0,1,16.84-2.23A12.13,12.13,0,0,1,106.05,65Z" transform="translate(-0.05 -4.16)"/></g><path class="cls-4" d="M140.31,26.22l4.33,14.9a19.74,19.74,0,0,0,12,13l14.5,5.44a19.75,19.75,0,0,1,9.16,29.89l-9,12.67a19.72,19.72,0,0,0-2.66,17.47l4.79,14.72a19.74,19.74,0,0,1-12.69,24.86,19.42,19.42,0,0,1-5,.94L140.4,161a19.72,19.72,0,0,0-15.35,8.83l-8.56,12.91a19.74,19.74,0,0,1-31.2,2.3L75,173.46A19.73,19.73,0,0,0,58.5,167l-15.42,1.39a19.73,19.73,0,0,1-21.41-17.91,19.33,19.33,0,0,1,.19-5l2.56-15.28a19.76,19.76,0,0,0-5.19-16.93L8.52,102a19.73,19.73,0,0,1,.63-27.9,20.17,20.17,0,0,1,4.07-3l13.55-7.49a19.77,19.77,0,0,0,10-14.58l2.09-15.38A19.73,19.73,0,0,1,66,18.08L80.26,24a19.7,19.7,0,0,0,17.66-1.29l13.29-7.94a19.74,19.74,0,0,1,27.07,6.8A20.25,20.25,0,0,1,140.31,26.22Z" transform="translate(-0.05 -4.16)"/><path class="cls-5" d="M122.93,54.28l2.72,9.36a12.38,12.38,0,0,0,7.56,8.17l9.12,3.42a12.41,12.41,0,0,1,7.25,16A13,13,0,0,1,148.09,94l-5.64,8a12.41,12.41,0,0,0-1.67,11l3,9.26a12.42,12.42,0,0,1-8,15.63,12.27,12.27,0,0,1-3.13.58L123,139a12.37,12.37,0,0,0-9.64,5.55L108,152.63a12.39,12.39,0,0,1-19.61,1.45l-6.49-7.25a12.4,12.4,0,0,0-10.35-4.08l-9.69.87a12.41,12.41,0,0,1-13.46-11.25,12.54,12.54,0,0,1,.12-3.18l1.61-9.6A12.44,12.44,0,0,0,46.82,109l-6.74-7a12.41,12.41,0,0,1,.4-17.54A12.06,12.06,0,0,1,43,82.51l8.52-4.72a12.42,12.42,0,0,0,6.28-9.16L59.15,59a12.43,12.43,0,0,1,17-9.8l9,3.73a12.46,12.46,0,0,0,11.1-.81l8.36-5a12.44,12.44,0,0,1,18.29,7.2Z" transform="translate(-0.05 -4.16)"/><circle class="cls-6" cx="96.79" cy="96.1" r="17.61"/></svg>